:SAMPLES-PER-SECOND 30
:FULLY-SPECIFIED
:DEGREES
367
root  6.53608 38.8446 -5.28682 7.17705 80.3722 15.459
RightUpLeg  -17.6441 1.75334 -6.64134
RightLeg  57.3494 3.10025 4.75131
RightFoot  1.17039 -0.67733 6.25018
RightToes  2.21189e-009 0 -3.6325e-017
Spine  6.95377 -0.474806 -4.77135
Spine1  11.017 -1.65832 0.579623
HEad  -14.9606 6.38425 -3.59121
LeftShoulder1  -0.04278 3.6312 -27.3954
LeftArm  -14.3328 7.75108 -39.9124
LeftForeArm  91.3754 -78.0635 -112.659
LeftHand  0.00504144 4.02798 -2.52595
RightShoulder  -0.582048 -5.28291 25.97
RightArm  -14.9515 -16.2572 33.7472
RightForeArm  110.188 68.3019 148.379
RightHand  -0.0958605 -1.8318 -2.87855
LeftUpLeg  -1.67602 2.82125 -7.37294
LeftLeg  20.3419 0.352673 0.625484
LeftFoot  -9.28723 -0.0982033 8.59538
LeftToes  -3.01956e-010 3.07132e-011 1.04116e-011
368
root  7.77423 38.9448 -5.15235 7.01845 81.4539 15.1269
RightUpLeg  -19.0228 2.05525 -6.62298
RightLeg  48.1506 4.19024 4.67766
RightFoot  -0.599446 -0.614096 6.49941
RightToes  2.21189e-009 0 -3.6325e-017
Spine  7.26713 -0.894355 -4.88691
Spine1  10.3569 -2.17027 1.27206
HEad  -14.6969 6.07883 -3.18795
LeftShoulder1  -0.0174963 3.55587 -27.3401
LeftArm  -14.0169 7.65442 -40.1037
LeftForeArm  91.5816 -78.0463 -112.863
LeftHand  0.00224146 4.18523 -2.43481
RightShoulder  -0.561942 -5.22947 25.7981
RightArm  -15.2144 -17.1288 33.4647
RightForeArm  110.883 67.8163 149.195
RightHand  -0.0958516 -2.56592 -3.41679
LeftUpLeg  1.0683 3.56262 -6.89129
LeftLeg  18.8393 -1.28474 0.116809
LeftFoot  -10.6367 0.00972226 8.7653
LeftToes  -3.01956e-010 3.07132e-011 1.04116e-011
369
root  9.05067 38.9623 -5.01103 8.01031 82.5304 15.6373
RightUpLeg  -19.6585 2.17675 -6.80764
RightLeg  37.0897 5.04818 3.84336
RightFoot  -1.63219 -0.628298 7.24812
RightToes  2.21189e-009 0 -3.6325e-017
Spine  6.65526 -1.33341 -5.07377
Spine1  10.4828 -2.71265 2.17587
HEad  -14.6045 5.94115 -3.4044
LeftShoulder1  -0.0534743 3.66137 -27.7918
LeftArm  -13.8517 7.08984 -40.0045
LeftForeArm  91.2384 -78.0812 -112.475
LeftHand  0.00409604 4.12123 -2.65667
RightShoulder  -0.545387 -5.19583 25.4547
RightArm  -15.5644 -17.8735 33.3382
RightForeArm  111.904 67.3144 150.033
RightHand  -0.0790325 -2.37907 -2.58241
LeftUpLeg  3.35908 3.74928 -6.62382
LeftLeg  17.6598 -2.45882 -0.0580132
LeftFoot  -12.2145 0.140118 8.70635
LeftToes  -3.01956e-010 3.07132e-011 1.04116e-011
370
root  10.3202 38.9208 -4.8856 10.8432 82.9201 17.9707
RightUpLeg  -19.8482 2.80509 -7.28316
RightLeg  25.3401 5.05939 2.5133
RightFoot  -1.46712 -0.612593 6.96577
RightToes  2.21189e-009 0 -3.6325e-017
Spine  6.07733 -1.57136 -4.98844
Spine1  10.6348 -2.82239 2.39322
HEad  -14.5497 5.80983 -3.07189
LeftShoulder1  -0.0725546 3.71746 -27.7927
LeftArm  -13.8778 6.6835 -40.1535
LeftForeArm  90.9871 -78.0821 -112.378
LeftHand  0.00288352 4.10718 -2.43781
RightShoulder  -0.573196 -5.26676 25.7612
RightArm  -15.5983 -18.0275 33.0377
RightForeArm  111.619 67.1009 150.307
RightHand  -0.0993265 -2.02802 -3.09601
LeftUpLeg  5.60248 4.19314 -6.55822
LeftLeg  16.4635 -3.34409 -0.341294
LeftFoot  -13.5845 0.256101 8.84672
LeftToes  -3.01956e-010 3.07132e-011 1.04116e-011
371
root  11.6331 38.8252 -4.70971 14.6987 83.425 21.6752
RightUpLeg  -19.0041 1.44893 -7.09634
RightLeg  13.6342 6.00401 0.888795
RightFoot  -1.83452 -0.576847 6.77388
RightToes  2.21189e-009 0 -3.6325e-017
Spine  5.79671 -1.60506 -4.99525
Spine1  10.794 -2.85514 2.8917
HEad  -14.1968 5.09218 -2.90899
LeftShoulder1  -0.0571014 3.67202 -27.7947
LeftArm  -13.7074 6.27584 -40.1998
LeftForeArm  90.4617 -78.1169 -111.92
LeftHand  0.00346961 4.1629 -2.7245
RightShoulder  -0.620825 -5.41766 25.7184
RightArm  -15.9775 -18.5795 33.1191
RightForeArm  112.721 66.6261 151.06
RightHand  -0.0782715 -2.43352 -2.61581
LeftUpLeg  8.31969 4.68151 -6.37057
LeftLeg  15.2321 -4.46973 -0.713886
LeftFoot  -14.9976 0.37505 8.94348
LeftToes  -3.01956e-010 3.07132e-011 1.04116e-011
372
root  12.9978 38.6429 -4.56057 19.9019 83.6258 26.6802
RightUpLeg  -18.4372 -4.72404 -5.22526
RightLeg  3.94692 11.1738 -0.869509
RightFoot  -2.43379 -0.548792 6.83799
RightToes  2.21189e-009 0 -3.6325e-017
Spine  5.41952 -1.6619 -4.47904
Spine1  10.8952 -2.73191 2.65231
HEad  -13.7166 4.72737 -2.97875
LeftShoulder1  -0.0744065 3.72362 -27.6418
LeftArm  -13.4935 5.96199 -40.162
LeftForeArm  90.1232 -78.1347 -111.657
LeftHand  0.00176955 4.17391 -2.4954
RightShoulder  -0.632637 -5.4493 25.807
RightArm  -16.1222 -19.487 33.1045
RightForeArm  113.358 66.0605 151.863
RightHand  -0.0834264 -2.1217 -2.6045
LeftUpLeg  10.9654 4.68699 -6.62298
LeftLeg  14.1565 -4.83766 -0.692627
LeftFoot  -16.5958 0.486421 8.38227
LeftToes  -3.01956e-010 3.07132e-011 1.04116e-011
373
root  14.4523 38.361 -4.34734 24.3173 84.0508 31.162
RightUpLeg  -17.7733 -6.61613 -4.84201
RightLeg  -2.09388 10.0688 -0.802308
RightFoot  -3.99628 -0.538795 7.97548
RightToes  2.21189e-009 0 -3.6325e-017
Spine  4.88582 -1.76218 -3.91932
Spine1  11.3272 -2.70064 2.32302
HEad  -13.1179 4.52703 -3.02839
LeftShoulder1  -0.0293066 3.59111 -27.441
LeftArm  -13.3007 5.7244 -39.993
LeftForeArm  89.7806 -78.1501 -111.409
LeftHand  -0.00518431 4.56175 -2.26193
RightShoulder  -0.600893 -5.35358 25.752
RightArm  -16.2425 -19.7767 33.3826
RightForeArm  113.265 65.9075 152.048
RightHand  -0.10006 -1.98876 -3.07872
LeftUpLeg  13.6971 4.83408 -6.40534
LeftLeg  13.9835 -5.6721 -0.810602
LeftFoot  -18.5091 0.62933 8.26483
LeftToes  -3.01956e-010 3.07132e-011 1.04116e-011
374
root  15.9753 37.9652 -4.07756 26.8498 84.5811 33.9846
RightUpLeg  -17.7944 -6.66353 -4.55233
RightLeg  -1.82535 6.68536 -0.0423193
RightFoot  -5.07157 -0.497279 8.4105
RightToes  2.21189e-009 0 -3.6325e-017
Spine  4.61537 -1.8902 -3.53665
Spine1  11.8021 -2.86832 2.42099
HEad  -12.8944 4.37111 -3.19831
LeftShoulder1  -0.0711067 3.71525 -27.4472
LeftArm  -13.2637 5.63193 -40.0094
LeftForeArm  89.7957 -78.1051 -111.777
LeftHand  -0.0106784 4.89091 -2.23536
RightShoulder  -0.584113 -5.30069 25.7619
RightArm  -15.8897 -19.7311 33.4291
RightForeArm  111.296 65.6225 152.232
RightHand  -0.137705 -2.31784 -4.84018
LeftUpLeg  16.2761 4.72673 -5.84073
LeftLeg  15.0033 -6.27012 -0.98202
LeftFoot  -21.0355 0.766334 7.54365
LeftToes  -3.01956e-010 3.07132e-011 1.04116e-011
375
root  17.5834 37.6227 -3.8174 24.5278 86.0244 32.3587
RightUpLeg  -17.4428 -6.11531 -3.43807
RightLeg  2.63658 2.8235 0.48831
RightFoot  -3.57962 -0.403476 5.5731
RightToes  2.21189e-009 0 -3.6325e-017
Spine  4.68816 -2.32331 -2.01363
Spine1  12.4128 -3.38002 2.55954
HEad  -12.449 4.32003 -3.33498
LeftShoulder1  -0.0714946 3.71557 -27.5866
LeftArm  -13.1858 6.03598 -39.7884
LeftForeArm  89.9567 -78.0789 -112.042
LeftHand  -0.00705087 4.54783 -1.92352
RightShoulder  -0.5765 -5.27621 25.7748
RightArm  -15.9858 -19.7612 32.8328
RightForeArm  112.543 65.3527 152.671
RightHand  -0.111415 -2.76374 -4.37725
LeftUpLeg  19.3662 3.62547 -4.45579
LeftLeg  16.1457 -6.90586 -1.27303
LeftFoot  -23.0058 0.783986 6.31003
LeftToes  -3.01956e-010 3.07132e-011 1.04116e-011
376
root  19.2097 37.4097 -3.52816 9.34741 87.8176 17.503
RightUpLeg  -17.8008 -5.69173 -1.83903
RightLeg  8.27142 1.52351 0.571229
RightFoot  0.512376 -0.0905605 1.20284
RightToes  2.21189e-009 0 -3.6325e-017
Spine  4.96555 -2.90194 0.143526
Spine1  12.291 -3.9631 2.85349
HEad  -11.9974 4.00209 -3.60185
LeftShoulder1  -0.0762952 3.73011 -27.5601
LeftArm  -12.9564 6.85791 -39.4923
LeftForeArm  90.6802 -78.023 -112.729
LeftHand  -0.00683461 4.71105 -2.63489
RightShoulder  -0.668331 -5.55404 25.9116
RightArm  -15.6165 -20.2662 32.0477
RightForeArm  113.925 64.962 153.247
RightHand  -0.0852459 -2.39248 -2.85122
LeftUpLeg  21.7746 1.34448 -2.95317
LeftLeg  17.5506 -6.6894 -1.7859
LeftFoot  -23.447 0.615995 4.47519
LeftToes  -3.01956e-010 3.07132e-011 1.04116e-011
377
root  20.8974 37.2404 -3.20226 -46.5198 88.0846 -37.9799
RightUpLeg  -18.4452 -4.90976 0.62708
RightLeg  13.7985 1.15815 0.474472
RightFoot  7.31013 0.323951 -1.78751
RightToes  2.21189e-009 0 -3.6325e-017
Spine  5.11225 -3.35914 4.04241
Spine1  12.4409 -3.95315 2.12431
HEad  -11.5611 3.75667 -3.62022
LeftShoulder1  -0.129173 3.88696 -27.5622
LeftArm  -12.5333 7.59741 -39.0375
LeftForeArm  90.8955 -77.9429 -113.412
LeftHand  -0.00881011 4.74256 -2.42863
RightShoulder  -0.688925 -5.59005 26.3459
RightArm  -15.471 -21.5011 31.4599
RightForeArm  114.813 64.1712 154.223
RightHand  -0.0936739 -2.39688 -3.18155
LeftUpLeg  23.2225 -0.162383 -0.0780342
LeftLeg  21.2336 -7.76519 -3.02237
LeftFoot  -22.8557 0.312923 1.80506
LeftToes  -3.01956e-010 3.07132e-011 1.04116e-011
378
root  22.5844 37.0294 -2.98064 -71.0255 85.864 -61.7997
RightUpLeg  -18.6206 -4.66092 3.29401
RightLeg  20.7155 1.62798 0.473908
RightFoot  5.3561 0.38897 -2.42128
RightToes  2.21189e-009 0 -3.6325e-017
Spine  6.0679 -3.82827 9.40384
Spine1  11.932 -3.29449 -0.111271
HEad  -11.2906 4.06296 -4.05875
LeftShoulder1  -0.158369 3.96347 -28.1842
LeftArm  -12.4589 8.72085 -38.4052
LeftForeArm  91.5351 -77.8628 -114.205
LeftHand  -0.00954213 4.75846 -2.42298
RightShoulder  -0.718845 -5.68043 26.3529
RightArm  -15.1518 -21.8503 31.3521
RightForeArm  115.257 64.2623 154.155
RightHand  -0.0810027 -2.59394 -2.84828
LeftUpLeg  23.0503 -0.170799 3.36925
LeftLeg  28.4817 -9.63523 -5.34334
LeftFoot  -20.286 -0.0736431 -2.74933
LeftToes  -3.01956e-010 3.07132e-011 1.04116e-011
